<?xml version="1.0" encoding="UTF-8" standalone="no"?>
<!-- Creator: fig2dev Version 3.2.7b-dev -->
<!-- CreationDate: 2022-05-01 12:45:04 -->
<!-- Magnification: 1 -->
<svg	xmlns="http://www.w3.org/2000/svg"
	xmlns:xlink="http://www.w3.org/1999/xlink"
	width="294pt" height="132pt"
	viewBox="525 -75 4887 2187">
<g fill="none">
<!-- Circle -->
<circle cx="600" cy="600" r="60"
	stroke="#000000" stroke-width="15px"/>
<!-- Circle -->
<circle cx="600" cy="1800" r="60"
	stroke="#000000" stroke-width="15px"/>
<!-- Circle -->
<circle cx="1800" cy="600" r="36" fill="#000000"
	stroke="#000000" stroke-width="15px"/>
<!-- Circle -->
<circle cx="3600" cy="600" r="36" fill="#000000"
	stroke="#000000" stroke-width="15px"/>
<!-- Circle -->
<circle cx="5100" cy="600" r="36" fill="#000000"
	stroke="#000000" stroke-width="15px"/>
<!-- Circle -->
<circle cx="1800" cy="1800" r="36" fill="#000000"
	stroke="#000000" stroke-width="15px"/>
<!-- Circle -->
<circle cx="3600" cy="1800" r="36" fill="#000000"
	stroke="#000000" stroke-width="15px"/>
<!-- Circle -->
<circle cx="5100" cy="1800" r="36" fill="#000000"
	stroke="#000000" stroke-width="15px"/>
<!-- Line -->
<rect x="1050" y="300" width="3300" height="1800"
	stroke="#000000" stroke-width="8px"/>
<!-- Line -->
<rect x="4800" y="300" width="600" height="1800"
	stroke="#000000" stroke-width="8px"/>
<!-- Line -->
<defs>
<clipPath id="cp0">
	<path clip-rule="evenodd" d="M 525,-75 H 5412 V 2112 H 525 z
		M 771,540 771,660 911,611 911,590z"/>
</clipPath>
</defs>
<polyline points=" 660,600 900,600" clip-path="url(#cp0)"
	stroke="#000000" stroke-width="15px"/>
<!-- Forward arrow to point 900,600 -->
<polygon points=" 771,660 891,600 771,540 771,660"
	stroke="#000000" stroke-width="8px" stroke-miterlimit="8" fill="#000000"/>
<!-- Line -->
<polyline points=" 825,600 1800,600"
	stroke="#000000" stroke-width="15px"/>
<!-- Line -->
<defs>
<clipPath id="cp1">
	<path clip-rule="evenodd" d="M 525,-75 H 5412 V 2112 H 525 z
		M 879,1860 879,1740 740,1790 740,1811z"/>
</clipPath>
</defs>
<polyline points=" 1800,1800 750,1800" clip-path="url(#cp1)"
	stroke="#000000" stroke-width="15px"/>
<!-- Forward arrow to point 750,1800 -->
<polygon points=" 879,1740 759,1800 879,1860 879,1740"
	stroke="#000000" stroke-width="8px" stroke-miterlimit="8" fill="#000000"/>
<!-- Line -->
<polyline points=" 825,1800 660,1800"
	stroke="#000000" stroke-width="15px"/>
<!-- Line -->
<defs>
<clipPath id="cp2">
	<path clip-rule="evenodd" d="M 525,-75 H 5412 V 2112 H 525 z
		M 2646,540 2646,660 2786,611 2786,590z"/>
</clipPath>
</defs>
<polyline points=" 1800,600 2775,600" clip-path="url(#cp2)"
	stroke="#00b000" stroke-width="15px"/>
<!-- Forward arrow to point 2775,600 -->
<polygon points=" 2646,660 2766,600 2646,540 2646,660"
	stroke="#00b000" stroke-width="8px" stroke-miterlimit="8" fill="#00b000"/>
<!-- Line -->
<polyline points=" 2700,600 3600,600"
	stroke="#00b000" stroke-width="15px"/>
<!-- Line -->
<defs>
<clipPath id="cp3">
	<path clip-rule="evenodd" d="M 525,-75 H 5412 V 2112 H 525 z
		M 2304,1860 2304,1740 2165,1790 2165,1811z"/>
</clipPath>
</defs>
<polyline points=" 3600,1800 2175,1800" clip-path="url(#cp3)"
	stroke="#0000ff" stroke-width="15px"/>
<!-- Forward arrow to point 2175,1800 -->
<polygon points=" 2304,1740 2184,1800 2304,1860 2304,1740"
	stroke="#0000ff" stroke-width="8px" stroke-miterlimit="8" fill="#0000ff"/>
<!-- Line -->
<polyline points=" 2250,1800 1800,1800"
	stroke="#0000ff" stroke-width="15px"/>
<!-- Line -->
<defs>
<clipPath id="cp4">
	<path clip-rule="evenodd" d="M 525,-75 H 5412 V 2112 H 525 z
		M 1860,1146 1740,1146 1790,1286 1811,1286z"/>
</clipPath>
</defs>
<polyline points=" 1800,600 1800,1275" clip-path="url(#cp4)"
	stroke="#ffa500" stroke-width="15px"/>
<!-- Forward arrow to point 1800,1275 -->
<polygon points=" 1740,1146 1800,1266 1860,1146 1740,1146"
	stroke="#ffa500" stroke-width="8px" stroke-miterlimit="8" fill="#ffa500"/>
<!-- Line -->
<polyline points=" 1800,1200 1800,1800"
	stroke="#ffa500" stroke-width="15px"/>
<!-- Line -->
<defs>
<clipPath id="cp5">
	<path clip-rule="evenodd" d="M 525,-75 H 5412 V 2112 H 525 z
		M 3540,1254 3660,1254 3611,1115 3590,1115z"/>
</clipPath>
</defs>
<polyline points=" 3600,1800 3600,1125" clip-path="url(#cp5)"
	stroke="#a020f0" stroke-width="15px"/>
<!-- Forward arrow to point 3600,1125 -->
<polygon points=" 3660,1254 3600,1134 3540,1254 3660,1254"
	stroke="#a020f0" stroke-width="8px" stroke-miterlimit="8" fill="#a020f0"/>
<!-- Line -->
<polyline points=" 3600,1200 3600,600"
	stroke="#a020f0" stroke-width="15px"/>
<!-- Line -->
<defs>
<clipPath id="cp6">
	<path clip-rule="evenodd" d="M 525,-75 H 5412 V 2112 H 525 z
		M 4521,540 4521,660 4661,611 4661,590z"/>
</clipPath>
</defs>
<polyline points=" 3600,600 4650,600" clip-path="url(#cp6)"
	stroke="#000000" stroke-width="15px"/>
<!-- Forward arrow to point 4650,600 -->
<polygon points=" 4521,660 4641,600 4521,540 4521,660"
	stroke="#000000" stroke-width="8px" stroke-miterlimit="8" fill="#000000"/>
<!-- Line -->
<polyline points=" 4575,600 5100,600"
	stroke="#000000" stroke-width="15px"/>
<!-- Line -->
<defs>
<clipPath id="cp7">
	<path clip-rule="evenodd" d="M 525,-75 H 5412 V 2112 H 525 z
		M 4629,1860 4629,1740 4490,1790 4490,1811z"/>
</clipPath>
</defs>
<polyline points=" 5100,1800 4500,1800" clip-path="url(#cp7)"
	stroke="#000000" stroke-width="15px"/>
<!-- Forward arrow to point 4500,1800 -->
<polygon points=" 4629,1740 4509,1800 4629,1860 4629,1740"
	stroke="#000000" stroke-width="8px" stroke-miterlimit="8" fill="#000000"/>
<!-- Line -->
<polyline points=" 4575,1800 3600,1800"
	stroke="#000000" stroke-width="15px"/>
<!-- Line -->
<defs>
<clipPath id="cp8">
	<path clip-rule="evenodd" d="M 525,-75 H 5412 V 2112 H 525 z
		M 5160,1146 5040,1146 5090,1286 5111,1286z"/>
</clipPath>
</defs>
<polyline points=" 5100,600 5100,1275" clip-path="url(#cp8)"
	stroke="#000000" stroke-width="15px"/>
<!-- Forward arrow to point 5100,1275 -->
<polygon points=" 5040,1146 5100,1266 5160,1146 5040,1146"
	stroke="#000000" stroke-width="8px" stroke-miterlimit="8" fill="#000000"/>
<!-- Line -->
<polyline points=" 5100,1200 5100,1800"
	stroke="#000000" stroke-width="15px"/>
<!-- Text -->
<text xml:space="preserve" x="2700" y="150" fill="#000000" font-family="Times" font-style="normal" font-weight="normal" font-size="144" text-anchor="middle">Error Box</text>
<!-- Text -->
<text xml:space="preserve" x="5100" y="150" fill="#000000" font-family="Times" font-style="normal" font-weight="normal" font-size="144" text-anchor="middle">DUT</text>
<!-- Text -->
<text xml:space="preserve" x="825" y="498" fill="#000000" font-family="Times" font-style="normal" font-weight="normal" font-size="144" text-anchor="middle">a1</text>
<!-- Text -->
<text xml:space="preserve" x="825" y="2022" fill="#000000" font-family="Times" font-style="normal" font-weight="normal" font-size="144" text-anchor="middle">b1</text>
<!-- Text -->
<text xml:space="preserve" x="2700" y="498" fill="#00b000" font-family="Times" font-style="normal" font-weight="normal" font-size="144" text-anchor="middle">Et11</text>
<!-- Text -->
<text xml:space="preserve" x="2250" y="2022" fill="#0000ff" font-family="Times" font-style="normal" font-weight="normal" font-size="144" text-anchor="middle">Er11</text>
<!-- Text -->
<g transform="translate(1902,1200) rotate(90)" >
<text xml:space="preserve" x="0" y="0" fill="#ffa500" font-family="Times" font-style="normal" font-weight="normal" font-size="144" text-anchor="middle">Ed11</text>
</g><!-- Text -->
<g transform="translate(3498,1200) rotate(-90)" >
<text xml:space="preserve" x="0" y="0" fill="#a020f0" font-family="Times" font-style="normal" font-weight="normal" font-size="144" text-anchor="middle">Em11</text>
</g><!-- Text -->
<text xml:space="preserve" x="4575" y="498" fill="#000000" font-family="Times" font-style="normal" font-weight="normal" font-size="144" text-anchor="middle">x1</text>
<!-- Text -->
<text xml:space="preserve" x="4575" y="2022" fill="#000000" font-family="Times" font-style="normal" font-weight="normal" font-size="144" text-anchor="middle">y1</text>
<!-- Text -->
<g transform="translate(4877,1200) rotate(90)" >
<text xml:space="preserve" x="0" y="0" fill="#000000" font-family="Times" font-style="normal" font-weight="normal" font-size="144" text-anchor="middle">S11</text>
</g></g>
</svg>
